<svg width="26" height="26" viewBox="0 0 26 26" fill="none" xmlns="http://www.w3.org/2000/svg">
<path fill-rule="evenodd" clip-rule="evenodd" d="M18.9412 14H14.0012V18.94C14.0012 19.492 13.5532 19.94 13.0012 19.94C12.4492 19.94 12.0012 19.492 12.0012 18.94V14H7.0625C6.5105 14 6.0625 13.552 6.0625 13C6.0625 12.448 6.5105 12 7.0625 12H12.0012V7.06001C12.0012 6.50801 12.4492 6.06001 13.0012 6.06001C13.5532 6.06001 14.0012 6.50801 14.0012 7.06001V12H18.9412C19.4932 12 19.9412 12.448 19.9412 13C19.9412 13.552 19.4932 14 18.9412 14ZM12.9998 0.666672C6.18784 0.666672 0.666504 6.18934 0.666504 13C0.666504 19.812 6.18784 25.3333 12.9998 25.3333C19.8105 25.3333 25.3332 19.812 25.3332 13C25.3332 6.18934 19.8105 0.666672 12.9998 0.666672Z" fill="#23778E"/>
</svg>
