<svg width="24" height="24" viewBox="0 0 24 24" fill="none" xmlns="http://www.w3.org/2000/svg">
<path fill-rule="evenodd" clip-rule="evenodd" d="M9.53033 6.46967C9.82322 6.76256 9.82322 7.23744 9.53033 7.53033L5.811 11.25H20C20.4142 11.25 20.75 11.5858 20.75 12C20.75 12.4142 20.4142 12.75 20 12.75H5.811L9.53033 16.4697C9.7966 16.7359 9.8208 17.1526 9.60295 17.4462L9.53033 17.5303C9.23744 17.8232 8.76256 17.8232 8.46967 17.5303L3.46967 12.5303C3.43523 12.4959 3.40484 12.4589 3.3785 12.42C3.36746 12.4037 3.35681 12.3865 3.34685 12.3689C3.3387 12.3546 3.33106 12.34 3.32393 12.3252C3.31545 12.3075 3.30745 12.2891 3.30019 12.2703C3.29603 12.2595 3.2923 12.2491 3.28881 12.2387C3.28158 12.2173 3.27517 12.1948 3.26981 12.172C3.26701 12.1597 3.26458 12.148 3.26242 12.1363C3.25891 12.1177 3.25606 12.0979 3.254 12.0779C3.25192 12.0575 3.25066 12.0375 3.2502 12.0174C3.25007 12.0116 3.25 12.0058 3.25 12L3.25018 11.9835C3.25062 11.9632 3.25189 11.9429 3.25398 11.9226L3.25 12C3.25 11.9532 3.25429 11.9073 3.26251 11.8628C3.26458 11.852 3.26701 11.8403 3.26973 11.8286C3.27517 11.8052 3.28158 11.7827 3.28898 11.7607C3.2923 11.7509 3.29603 11.7405 3.29999 11.7302C3.30745 11.7109 3.31544 11.6925 3.32414 11.6745C3.33106 11.66 3.3387 11.6454 3.34686 11.631C3.35681 11.6135 3.36746 11.5963 3.37876 11.5797C3.38569 11.5693 3.39318 11.5589 3.40097 11.5486C3.42217 11.5206 3.44507 11.4943 3.46967 11.4697L8.46967 6.46967C8.76256 6.17678 9.23744 6.17678 9.53033 6.46967Z" fill="white"/>
</svg>
