<svg width="24" height="24" viewBox="0 0 24 24" fill="none" xmlns="http://www.w3.org/2000/svg">
<path fill-rule="evenodd" clip-rule="evenodd" d="M16.0303 14.9695C16.3233 15.2625 16.3233 15.7375 16.0303 16.0305C15.8843 16.1765 15.6923 16.2495 15.5003 16.2495C15.3073 16.2495 15.1163 16.1765 14.9693 16.0305L12.0003 13.0605L9.03029 16.0305C8.88429 16.1765 8.69229 16.2495 8.50029 16.2495C8.30729 16.2495 8.11629 16.1765 7.96929 16.0305C7.67629 15.7375 7.67629 15.2625 7.96929 14.9695L10.9393 11.9995L7.96929 9.03049C7.67629 8.73749 7.67629 8.26249 7.96929 7.96949C8.26229 7.67649 8.73729 7.67649 9.03029 7.96949L12.0003 10.9395L14.9693 7.96949C15.2623 7.67649 15.7373 7.67649 16.0303 7.96949C16.3233 8.26249 16.3233 8.73749 16.0303 9.03049L13.0603 11.9995L16.0303 14.9695ZM11.9983 2.75049C6.89029 2.75049 2.74829 6.89149 2.74829 12.0005C2.74829 17.1085 6.89029 21.2505 11.9983 21.2505C17.1073 21.2505 21.2483 17.1085 21.2483 12.0005C21.2483 6.89149 17.1073 2.75049 11.9983 2.75049Z" fill="white"/>
</svg>
