<svg width="24" height="24" viewBox="0 0 24 24" fill="none" xmlns="http://www.w3.org/2000/svg">
<g clip-path="url(#clip0_2735_11287)">
<mask id="mask0_2735_11287" style="mask-type:luminance" maskUnits="userSpaceOnUse" x="0" y="0" width="24" height="24">
<path d="M24 0H0V24H24V0Z" fill="white"/>
</mask>
<g mask="url(#mask0_2735_11287)">
<path fill-rule="evenodd" clip-rule="evenodd" d="M14.423 4.23798C14.912 4.23798 15.371 4.47698 15.651 4.87698L16.622 6.26198H19.5C20.328 6.26198 21 6.93398 21 7.76198V18.262C21 19.091 20.328 19.762 19.5 19.762H4.5C3.672 19.762 3 19.091 3 18.262V7.76198C3 6.93398 3.672 6.26198 4.5 6.26198H7.378L8.349 4.87698C8.629 4.47698 9.088 4.23798 9.577 4.23798H14.423ZM12 7.88498C9.429 7.88498 7.345 9.96898 7.345 12.54C7.345 15.111 9.429 17.195 12 17.195C14.571 17.195 16.655 15.111 16.655 12.54C16.655 9.96898 14.571 7.88498 12 7.88498ZM12 9.08488C13.905 9.08488 15.455 10.6349 15.455 12.5399C15.455 14.4449 13.905 15.9949 12 15.9949C10.095 15.9949 8.545 14.4449 8.545 12.5399C8.545 10.6349 10.095 9.08488 12 9.08488Z" fill="white"/>
</g>
</g>
<defs>
<clipPath id="clip0_2735_11287">
<rect width="24" height="24" fill="white"/>
</clipPath>
</defs>
</svg>
