<svg width="24" height="24" viewBox="0 0 24 24" fill="none" xmlns="http://www.w3.org/2000/svg">
<path fill-rule="evenodd" clip-rule="evenodd" d="M6.01214 4.92737L11.9818 10.8967L17.9515 4.92737C18.2444 4.63448 18.7192 4.63448 19.0121 4.92737C19.305 5.22027 19.305 5.69514 19.0121 5.98803L13.0428 11.9577L19.0121 17.9274C19.305 18.2203 19.305 18.6951 19.0121 18.988C18.7192 19.2809 18.2444 19.2809 17.9515 18.988L11.9818 13.0187L6.01214 18.988C5.71925 19.2809 5.24437 19.2809 4.95148 18.988C4.65859 18.6951 4.65859 18.2203 4.95148 17.9274L10.9208 11.9577L4.95148 5.98803C4.65859 5.69514 4.65859 5.22027 4.95148 4.92737C5.24437 4.63448 5.71925 4.63448 6.01214 4.92737Z" fill="white"/>
</svg>
