<svg width="24" height="24" viewBox="0 0 24 24" fill="none" xmlns="http://www.w3.org/2000/svg">
<path fill-rule="evenodd" clip-rule="evenodd" d="M18.0881 7.86402L17.2781 8.67402L15.3261 6.72202L16.1361 5.91202C16.3961 5.65102 16.7431 5.50702 17.1121 5.50702C17.4811 5.50702 17.8271 5.65102 18.0881 5.91102C18.6261 6.45002 18.6261 7.32602 18.0881 7.86402ZM7.45908 18.493H5.50708V16.541L14.2651 7.78202L16.2181 9.73402L7.45908 18.493ZM19.1491 4.85102C18.5861 4.28902 17.8491 4.00702 17.1121 4.00702C16.3751 4.00702 15.6371 4.28902 15.0751 4.85102L4.35808 15.568C4.13308 15.793 4.00708 16.098 4.00708 16.416V19.243C4.00708 19.657 4.34308 19.993 4.75708 19.993H7.58308C7.90208 19.993 8.20708 19.866 8.43208 19.641L17.2781 10.795L18.3391 9.73402L19.1491 8.92502C20.2741 7.80002 20.2741 5.97602 19.1491 4.85102Z" fill="white"/>
</svg>
