<svg width="24" height="24" viewBox="0 0 24 24" fill="none" xmlns="http://www.w3.org/2000/svg">
<path fill-rule="evenodd" clip-rule="evenodd" d="M14.106 17.037H13.053H11.39H10.338C9.97403 17.037 9.68003 16.743 9.68003 16.379C9.68003 16.016 9.97403 15.722 10.338 15.722H11.39V11.8H10.488C10.124 11.8 9.83003 11.506 9.83003 11.142C9.83003 10.779 10.124 10.485 10.488 10.485H11.39H12.018H12.451C12.783 10.485 13.053 10.755 13.053 11.088V15.722H14.106C14.469 15.722 14.764 16.016 14.764 16.379C14.764 16.743 14.469 17.037 14.106 17.037ZM12 6.39197C12.668 6.39197 13.21 6.93397 13.21 7.60197C13.21 8.26897 12.668 8.81097 12 8.81097C11.333 8.81097 10.791 8.26897 10.791 7.60197C10.791 6.93397 11.333 6.39197 12 6.39197ZM12 2.75897C6.89603 2.75897 2.75903 6.89597 2.75903 12C2.75903 17.104 6.89603 21.241 12 21.241C17.105 21.241 21.241 17.104 21.241 12C21.241 6.89597 17.105 2.75897 12 2.75897Z" fill="white"/>
</svg>
