<svg width="24" height="24" viewBox="0 0 24 24" fill="none" xmlns="http://www.w3.org/2000/svg">
<path fill-rule="evenodd" clip-rule="evenodd" d="M12 2.75C17.109 2.75 21.25 6.891 21.25 12C21.25 17.109 17.109 21.25 12 21.25C6.891 21.25 2.75 17.109 2.75 12C2.75 6.891 6.891 2.75 12 2.75ZM16.7827 9.29438C16.4872 9.0041 16.0124 9.00832 15.7221 9.3038L11.0691 14.0394L8.56893 11.4856C8.27911 11.1897 7.80426 11.1847 7.50833 11.4746C7.2124 11.7644 7.20745 12.2392 7.49727 12.5352L10.5333 15.6352C10.8271 15.9352 11.3099 15.9355 11.6041 15.636L16.7921 10.355C17.0824 10.0595 17.0782 9.58466 16.7827 9.29438Z" fill="white"/>
</svg>
