<svg width="24" height="24" viewBox="0 0 24 24" fill="none" xmlns="http://www.w3.org/2000/svg">
<g clip-path="url(#clip0_2735_11280)">
<mask id="mask0_2735_11280" style="mask-type:luminance" maskUnits="userSpaceOnUse" x="0" y="0" width="24" height="24">
<path d="M24 0H0V24H24V0Z" fill="white"/>
</mask>
<g mask="url(#mask0_2735_11280)">
<path fill-rule="evenodd" clip-rule="evenodd" d="M19 5.25C19.4142 5.25 19.75 5.58579 19.75 6C19.75 6.41421 19.4142 6.75 19 6.75H5C4.58579 6.75 4.25 6.41421 4.25 6C4.25 5.58579 4.58579 5.25 5 5.25H19ZM10.8 11.25C11.2142 11.25 11.55 11.5858 11.55 12C11.55 12.4142 11.2142 12.75 10.8 12.75H5C4.58579 12.75 4.25 12.4142 4.25 12C4.25 11.5858 4.58579 11.25 5 11.25H10.8ZM10.8 17.25C11.2142 17.25 11.55 17.5858 11.55 18C11.55 18.4142 11.2142 18.75 10.8 18.75H5C4.58579 18.75 4.25 18.4142 4.25 18C4.25 17.5858 4.58579 17.25 5 17.25H10.8ZM13.268 16.5969C13.5608 16.3039 14.0357 16.3038 14.3286 16.5967L16.4994 18.7671L18.6711 16.5968C18.9373 16.3305 19.354 16.3063 19.6476 16.5242L19.7317 16.5968C20.0246 16.8897 20.0246 17.3645 19.7317 17.6574L17.0307 20.3584C16.7379 20.6513 16.2631 20.6513 15.9702 20.3585L13.2682 17.6575C12.9752 17.3647 12.9751 16.8898 13.268 16.5969ZM15.9693 10.1416C16.2621 9.84872 16.7369 9.84867 17.0298 10.1415L19.7318 12.8425C20.0248 13.1353 20.0249 13.6102 19.732 13.9031C19.4392 14.1961 18.9643 14.1962 18.6714 13.9033L16.4996 11.7319L14.3289 13.9032C14.0627 14.1695 13.646 14.1937 13.3524 13.9758L13.2683 13.9032C12.9754 13.6103 12.9754 13.1355 13.2683 12.8426L15.9693 10.1416Z" fill="white"/>
</g>
</g>
<defs>
<clipPath id="clip0_2735_11280">
<rect width="24" height="24" fill="white"/>
</clipPath>
</defs>
</svg>
