<svg width="24" height="24" viewBox="0 0 24 24" fill="none" xmlns="http://www.w3.org/2000/svg">
<path fill-rule="evenodd" clip-rule="evenodd" d="M20.4209 9.7853C19.9485 10.3631 19.2544 10.6953 18.5193 10.6953C17.9384 10.6953 17.372 10.487 16.9262 10.1002C16.42 9.6638 16.1067 9.04883 16.0489 8.3694C15.991 7.68749 16.1935 7.02542 16.6201 6.50468C17.0949 5.92692 17.7866 5.59464 18.5217 5.59464C19.1049 5.59464 19.6713 5.80541 20.1148 6.19224C20.6233 6.62619 20.9342 7.24363 20.9897 7.92306C21.0499 8.60249 20.8451 9.26457 20.4209 9.7853ZM15.8223 20.5C15.4801 20.5 15.1426 20.4405 14.7956 20.319C13.887 19.9991 12.9422 19.8379 11.995 19.8379C11.0406 19.8379 10.1054 19.9991 9.20886 20.3165C8.85939 20.438 8.51233 20.5 8.1749 20.5C6.42996 20.5 5.00797 19.037 5.00797 17.2367C5.00797 16.3515 5.35503 15.5233 5.99131 14.9009L9.22091 11.6773C9.97529 10.9061 10.961 10.4796 11.9974 10.4796C13.0362 10.4796 14.0243 10.9061 14.7763 11.6773L18.0035 14.8984C18.6398 15.5208 18.9892 16.3515 18.9892 17.2367C18.9892 19.037 17.5673 20.5 15.8223 20.5ZM3.88484 6.18976C4.32831 5.80293 4.89469 5.59464 5.47795 5.59464C6.21304 5.59464 6.90717 5.92692 7.37956 6.50468C7.80615 7.02542 8.00861 7.68749 7.95076 8.3694C7.89292 9.04883 7.5796 9.66628 7.07106 10.1002C6.62759 10.4846 6.06361 10.6953 5.48036 10.6953C4.74285 10.6953 4.05114 10.3631 3.57875 9.7853C2.69905 8.70912 2.83884 7.09485 3.88484 6.18976ZM11.9998 2.5C13.3712 2.5 14.4823 3.64313 14.4823 5.05159C14.4823 6.46005 13.3712 7.60318 11.9998 7.60318C10.6308 7.60318 9.51977 6.46005 9.51977 5.05159C9.51977 3.64313 10.6308 2.5 11.9998 2.5Z" fill="white"/>
</svg>
