<svg width="24" height="24" viewBox="0 0 24 24" fill="none" xmlns="http://www.w3.org/2000/svg">
<path fill-rule="evenodd" clip-rule="evenodd" d="M10 2.75C14.0042 2.75 17.25 5.99579 17.25 10C17.25 11.5506 16.7632 12.9875 15.9342 14.1663L20.3839 18.6161C20.872 19.1043 20.872 19.8957 20.3839 20.3839C19.8957 20.872 19.1043 20.872 18.6161 20.3839L14.1663 15.9342C12.9875 16.7632 11.5506 17.25 10 17.25C5.99579 17.25 2.75 14.0042 2.75 10C2.75 5.99579 5.99579 2.75 10 2.75ZM10 4.25C6.82421 4.25 4.25 6.82421 4.25 10C4.25 13.1758 6.82421 15.75 10 15.75C11.5175 15.75 12.8976 15.1623 13.9252 14.202C13.9611 14.1475 14.0036 14.0976 14.0506 14.0506C14.0976 14.0036 14.1475 13.9611 14.1996 13.9232C15.1623 12.8976 15.75 11.5175 15.75 10C15.75 6.82421 13.1758 4.25 10 4.25Z" fill="white"/>
</svg>
