<svg width="24" height="24" viewBox="0 0 24 24" fill="none" xmlns="http://www.w3.org/2000/svg">
<g clip-path="url(#clip0_2735_11323)">
<mask id="mask0_2735_11323" style="mask-type:luminance" maskUnits="userSpaceOnUse" x="0" y="0" width="24" height="24">
<path d="M24 0H0V24H24V0Z" fill="white"/>
</mask>
<g mask="url(#mask0_2735_11323)">
<path fill-rule="evenodd" clip-rule="evenodd" d="M12 15.4899C10.076 15.4899 8.50999 13.9239 8.50999 11.9999C8.50999 10.0759 10.076 8.50988 12 8.50988C13.924 8.50988 15.49 10.0759 15.49 11.9999C15.49 13.9239 13.924 15.4899 12 15.4899ZM19.656 13.1149C19.709 12.7499 19.745 12.3799 19.745 11.9999C19.745 11.6209 19.709 11.2509 19.656 10.8859L20.964 9.72988C21.343 9.39488 21.434 8.83988 21.181 8.40188L19.707 5.84788C19.454 5.41088 18.927 5.21088 18.448 5.37188L16.793 5.92788C16.21 5.46688 15.562 5.08888 14.862 4.80988L14.516 3.10188C14.415 2.60588 13.98 2.24988 13.474 2.24988H10.526C10.02 2.24988 9.58399 2.60588 9.48399 3.10188L9.13799 4.80988C8.43799 5.08888 7.78999 5.46688 7.20699 5.92788L5.55199 5.37188C5.07299 5.21088 4.54599 5.40988 4.29299 5.84888L2.81899 8.40188C2.56599 8.83988 2.65699 9.39488 3.03599 9.72988L4.34399 10.8859C4.29099 11.2509 4.25499 11.6209 4.25499 11.9999C4.25499 12.3799 4.29099 12.7499 4.34399 13.1149L3.03599 14.2709C2.65699 14.6049 2.56599 15.1599 2.81899 15.5989L4.29299 18.1519C4.54599 18.5899 5.07299 18.7889 5.55199 18.6279L7.20699 18.0729C7.78999 18.5329 8.43799 18.9109 9.13799 19.1909L9.48399 20.8989C9.58499 21.3939 10.02 21.7499 10.526 21.7499H13.474C13.98 21.7499 14.416 21.3939 14.516 20.8989L14.862 19.1909C15.562 18.9109 16.21 18.5329 16.793 18.0729L18.448 18.6279C18.927 18.7889 19.454 18.5899 19.707 18.1519L21.181 15.5979C21.434 15.1609 21.343 14.6049 20.964 14.2709L19.656 13.1149Z" fill="white"/>
</g>
</g>
<defs>
<clipPath id="clip0_2735_11323">
<rect width="24" height="24" fill="white"/>
</clipPath>
</defs>
</svg>
