<svg width="24" height="24" viewBox="0 0 24 24" fill="none" xmlns="http://www.w3.org/2000/svg">
<g clip-path="url(#clip0_2735_11316)">
<mask id="mask0_2735_11316" style="mask-type:luminance" maskUnits="userSpaceOnUse" x="0" y="0" width="24" height="24">
<path d="M24 0H0V24H24V0Z" fill="white"/>
</mask>
<g mask="url(#mask0_2735_11316)">
<path fill-rule="evenodd" clip-rule="evenodd" d="M16 9.75C15.0338 9.75 14.25 8.96621 14.25 8V4C14.25 3.58579 14.5858 3.25 15 3.25C15.4142 3.25 15.75 3.58579 15.75 4V8C15.75 8.13779 15.8622 8.25 16 8.25H20C20.4142 8.25 20.75 8.58579 20.75 9C20.75 9.41421 20.4142 9.75 20 9.75H16ZM15 20.75C14.5858 20.75 14.25 20.4142 14.25 20V16C14.25 15.0338 15.0338 14.25 16 14.25H20C20.4142 14.25 20.75 14.5858 20.75 15C20.75 15.4142 20.4142 15.75 20 15.75H16C15.8622 15.75 15.75 15.8622 15.75 16V20C15.75 20.4142 15.4142 20.75 15 20.75ZM9 20.75C8.58579 20.75 8.25 20.4142 8.25 20V16C8.25 15.8622 8.13779 15.75 8 15.75H4C3.58579 15.75 3.25 15.4142 3.25 15C3.25 14.5858 3.58579 14.25 4 14.25H8C8.96621 14.25 9.75 15.0338 9.75 16V20C9.75 20.4142 9.41421 20.75 9 20.75ZM4 9.75C3.58579 9.75 3.25 9.41421 3.25 9C3.25 8.58579 3.58579 8.25 4 8.25H8C8.13779 8.25 8.25 8.13779 8.25 8V4C8.25 3.58579 8.58579 3.25 9 3.25C9.41421 3.25 9.75 3.58579 9.75 4V8C9.75 8.96621 8.96621 9.75 8 9.75H4Z" fill="white"/>
</g>
</g>
<defs>
<clipPath id="clip0_2735_11316">
<rect width="24" height="24" fill="white"/>
</clipPath>
</defs>
</svg>
