<svg width="80" height="80" viewBox="0 0 80 80" fill="none" xmlns="http://www.w3.org/2000/svg">
<g clip-path="url(#clip0_4408_9400)">
<mask id="mask0_4408_9400" style="mask-type:luminance" maskUnits="userSpaceOnUse" x="0" y="0" width="80" height="80">
<path d="M80 0H0V80H80V0Z" fill="white"/>
</mask>
<g mask="url(#mask0_4408_9400)">
<path fill-rule="evenodd" clip-rule="evenodd" d="M40 6C58.7777 6 74 21.2223 74 40C74 58.7777 58.7777 74 40 74C21.2223 74 6 58.7777 6 40C6 21.2223 21.2223 6 40 6ZM40 8C22.3269 8 8 22.3269 8 40C8 57.6731 22.3269 72 40 72C57.6731 72 72 57.6731 72 40C72 22.3269 57.6731 8 40 8ZM40 10C56.5685 10 70 23.4315 70 40C70 56.5685 56.5685 70 40 70C23.4315 70 10 56.5685 10 40C10 23.4315 23.4315 10 40 10Z" fill="white"/>
</g>
</g>
<defs>
<clipPath id="clip0_4408_9400">
<rect width="80" height="80" fill="white"/>
</clipPath>
</defs>
</svg>
